<mxfile host="Electron" agent="Mozilla/5.0 (Macintosh; Intel Mac OS X 10_15_7) AppleWebKit/537.36 (KHTML, like Gecko) draw.io/26.2.2 Chrome/134.0.6998.178 Electron/35.1.2 Safari/537.36" version="26.2.2">
  <diagram name="Page-1" id="7WZNhPcmKVhtGyVWB52i">
    <mxGraphModel dx="1870" dy="748" grid="1" gridSize="10" guides="1" tooltips="1" connect="1" arrows="1" fold="1" page="1" pageScale="1" pageWidth="850" pageHeight="1100" math="0" shadow="0">
      <root>
        <mxCell id="0" />
        <mxCell id="1" parent="0" />
        <mxCell id="G9QdGe3z3q4GWRcZUUAA-1" value="" style="verticalLabelPosition=bottom;verticalAlign=top;html=1;shadow=0;dashed=0;strokeWidth=1;shape=mxgraph.android.phone2;strokeColor=#c0c0c0;" vertex="1" parent="1">
          <mxGeometry x="60" y="70" width="440" height="690" as="geometry" />
        </mxCell>
        <mxCell id="G9QdGe3z3q4GWRcZUUAA-3" value="最新留言 1" style="rounded=0;whiteSpace=wrap;html=1;" vertex="1" parent="1">
          <mxGeometry x="170" y="180" width="270" height="60" as="geometry" />
        </mxCell>
        <mxCell id="G9QdGe3z3q4GWRcZUUAA-20" value="获取回复文字" style="rounded=0;whiteSpace=wrap;html=1;" vertex="1" parent="1">
          <mxGeometry x="240" y="250" width="120" height="60" as="geometry" />
        </mxCell>
        <mxCell id="G9QdGe3z3q4GWRcZUUAA-21" value="合成的语音" style="rounded=0;whiteSpace=wrap;html=1;" vertex="1" parent="1">
          <mxGeometry x="240" y="330" width="120" height="30" as="geometry" />
        </mxCell>
        <mxCell id="G9QdGe3z3q4GWRcZUUAA-25" value="我" style="rounded=1;whiteSpace=wrap;html=1;" vertex="1" parent="1">
          <mxGeometry x="380" y="650" width="100" height="50" as="geometry" />
        </mxCell>
        <mxCell id="G9QdGe3z3q4GWRcZUUAA-26" value="消息" style="rounded=1;whiteSpace=wrap;html=1;fillColor=#D5E8D4;" vertex="1" parent="1">
          <mxGeometry x="90" y="640" width="120" height="60" as="geometry" />
        </mxCell>
        <mxCell id="G9QdGe3z3q4GWRcZUUAA-27" value="" style="verticalLabelPosition=bottom;verticalAlign=top;html=1;shadow=0;dashed=0;strokeWidth=1;shape=mxgraph.android.phone2;strokeColor=#c0c0c0;" vertex="1" parent="1">
          <mxGeometry x="520" y="60" width="440" height="690" as="geometry" />
        </mxCell>
        <mxCell id="G9QdGe3z3q4GWRcZUUAA-28" value="Actor" style="shape=umlActor;verticalLabelPosition=bottom;verticalAlign=top;html=1;outlineConnect=0;" vertex="1" parent="1">
          <mxGeometry x="110" y="180" width="30" height="60" as="geometry" />
        </mxCell>
        <mxCell id="G9QdGe3z3q4GWRcZUUAA-29" value="重新获取" style="rounded=1;whiteSpace=wrap;html=1;" vertex="1" parent="1">
          <mxGeometry x="370" y="260" width="70" height="40" as="geometry" />
        </mxCell>
        <mxCell id="G9QdGe3z3q4GWRcZUUAA-30" value="重新合成" style="rounded=1;whiteSpace=wrap;html=1;" vertex="1" parent="1">
          <mxGeometry x="370" y="330" width="70" height="30" as="geometry" />
        </mxCell>
        <mxCell id="G9QdGe3z3q4GWRcZUUAA-31" value="我" style="rounded=1;whiteSpace=wrap;html=1;fillColor=#D5E8D4;" vertex="1" parent="1">
          <mxGeometry x="840" y="640" width="100" height="50" as="geometry" />
        </mxCell>
        <mxCell id="G9QdGe3z3q4GWRcZUUAA-32" value="消息" style="rounded=1;whiteSpace=wrap;html=1;" vertex="1" parent="1">
          <mxGeometry x="540" y="630" width="120" height="60" as="geometry" />
        </mxCell>
        <mxCell id="G9QdGe3z3q4GWRcZUUAA-33" value="账号" style="rounded=0;whiteSpace=wrap;html=1;fillColor=#D5E8D4;" vertex="1" parent="1">
          <mxGeometry x="540" y="250" width="120" height="60" as="geometry" />
        </mxCell>
        <mxCell id="G9QdGe3z3q4GWRcZUUAA-34" value="关于" style="rounded=0;whiteSpace=wrap;html=1;" vertex="1" parent="1">
          <mxGeometry x="540" y="385" width="120" height="60" as="geometry" />
        </mxCell>
        <mxCell id="G9QdGe3z3q4GWRcZUUAA-35" value="帮助与反馈" style="rounded=0;whiteSpace=wrap;html=1;" vertex="1" parent="1">
          <mxGeometry x="540" y="320" width="120" height="60" as="geometry" />
        </mxCell>
        <mxCell id="G9QdGe3z3q4GWRcZUUAA-36" value="" style="verticalLabelPosition=bottom;verticalAlign=top;html=1;shadow=0;dashed=0;strokeWidth=1;shape=mxgraph.android.phone2;strokeColor=#c0c0c0;" vertex="1" parent="1">
          <mxGeometry x="980" y="40" width="440" height="690" as="geometry" />
        </mxCell>
        <mxCell id="G9QdGe3z3q4GWRcZUUAA-37" value="消息" style="rounded=1;whiteSpace=wrap;html=1;" vertex="1" parent="1">
          <mxGeometry x="1000" y="610" width="120" height="60" as="geometry" />
        </mxCell>
        <mxCell id="G9QdGe3z3q4GWRcZUUAA-38" value="我" style="rounded=1;whiteSpace=wrap;html=1;" vertex="1" parent="1">
          <mxGeometry x="1300" y="610" width="100" height="60" as="geometry" />
        </mxCell>
        <mxCell id="G9QdGe3z3q4GWRcZUUAA-39" value="账号安全" style="text;html=1;align=center;verticalAlign=middle;whiteSpace=wrap;rounded=0;" vertex="1" parent="1">
          <mxGeometry x="1210" y="160" width="60" height="30" as="geometry" />
        </mxCell>
        <mxCell id="G9QdGe3z3q4GWRcZUUAA-40" value="用户名" style="rounded=0;whiteSpace=wrap;html=1;" vertex="1" parent="1">
          <mxGeometry x="1080" y="200" width="120" height="60" as="geometry" />
        </mxCell>
        <mxCell id="G9QdGe3z3q4GWRcZUUAA-41" value="密码" style="rounded=0;whiteSpace=wrap;html=1;" vertex="1" parent="1">
          <mxGeometry x="1080" y="260" width="120" height="60" as="geometry" />
        </mxCell>
        <mxCell id="G9QdGe3z3q4GWRcZUUAA-42" value="取消" style="rounded=1;whiteSpace=wrap;html=1;" vertex="1" parent="1">
          <mxGeometry x="1010" y="110" width="70" height="40" as="geometry" />
        </mxCell>
        <mxCell id="G9QdGe3z3q4GWRcZUUAA-43" value="完成" style="rounded=1;whiteSpace=wrap;html=1;" vertex="1" parent="1">
          <mxGeometry x="1310" y="100" width="90" height="40" as="geometry" />
        </mxCell>
        <mxCell id="G9QdGe3z3q4GWRcZUUAA-44" value="最新留言 2" style="rounded=0;whiteSpace=wrap;html=1;" vertex="1" parent="1">
          <mxGeometry x="170" y="380" width="270" height="60" as="geometry" />
        </mxCell>
        <mxCell id="G9QdGe3z3q4GWRcZUUAA-45" value="获取回复文字" style="rounded=0;whiteSpace=wrap;html=1;" vertex="1" parent="1">
          <mxGeometry x="240" y="450" width="120" height="60" as="geometry" />
        </mxCell>
        <mxCell id="G9QdGe3z3q4GWRcZUUAA-46" value="合成的语音" style="rounded=0;whiteSpace=wrap;html=1;" vertex="1" parent="1">
          <mxGeometry x="240" y="530" width="120" height="30" as="geometry" />
        </mxCell>
        <mxCell id="G9QdGe3z3q4GWRcZUUAA-47" value="Actor" style="shape=umlActor;verticalLabelPosition=bottom;verticalAlign=top;html=1;outlineConnect=0;" vertex="1" parent="1">
          <mxGeometry x="110" y="380" width="30" height="60" as="geometry" />
        </mxCell>
        <mxCell id="G9QdGe3z3q4GWRcZUUAA-48" value="重新获取" style="rounded=1;whiteSpace=wrap;html=1;" vertex="1" parent="1">
          <mxGeometry x="370" y="460" width="70" height="40" as="geometry" />
        </mxCell>
        <mxCell id="G9QdGe3z3q4GWRcZUUAA-49" value="重新合成" style="rounded=1;whiteSpace=wrap;html=1;" vertex="1" parent="1">
          <mxGeometry x="370" y="530" width="70" height="30" as="geometry" />
        </mxCell>
        <mxCell id="G9QdGe3z3q4GWRcZUUAA-50" value="" style="verticalLabelPosition=bottom;verticalAlign=top;html=1;shadow=0;dashed=0;strokeWidth=1;shape=mxgraph.android.phone2;strokeColor=#c0c0c0;" vertex="1" parent="1">
          <mxGeometry x="-460" y="80" width="440" height="690" as="geometry" />
        </mxCell>
        <mxCell id="G9QdGe3z3q4GWRcZUUAA-51" value="用户名" style="rounded=0;whiteSpace=wrap;html=1;" vertex="1" parent="1">
          <mxGeometry x="-360" y="280" width="200" height="60" as="geometry" />
        </mxCell>
        <mxCell id="G9QdGe3z3q4GWRcZUUAA-52" value="密码" style="rounded=0;whiteSpace=wrap;html=1;" vertex="1" parent="1">
          <mxGeometry x="-360" y="350" width="200" height="60" as="geometry" />
        </mxCell>
        <mxCell id="G9QdGe3z3q4GWRcZUUAA-53" value="取消" style="rounded=1;whiteSpace=wrap;html=1;" vertex="1" parent="1">
          <mxGeometry x="-390" y="430" width="120" height="60" as="geometry" />
        </mxCell>
        <mxCell id="G9QdGe3z3q4GWRcZUUAA-54" value="登录" style="rounded=1;whiteSpace=wrap;html=1;" vertex="1" parent="1">
          <mxGeometry x="-250" y="430" width="120" height="60" as="geometry" />
        </mxCell>
      </root>
    </mxGraphModel>
  </diagram>
</mxfile>
